<svg xmlns="http://www.w3.org/2000/svg" width="1055" height="987" viewBox="0 0 1055 987" fill="none">
  <path
    d="M 90 101 L 68 128 L 46 162 L 30 194 L 16 231 L 6 270 L 0 316 L 0 372 L 2 390 L 10 434 L 21 471 L 35 504 L 56 542 L 85 581 L 116 612 L 140 631 L 175 652 L 182 660 L 186 669 L 188 678 L 187 946 L 188 968 L 196 980 L 204 984 L 215 984 L 222 981 L 477 733 L 495 725 L 511 725 L 525 731 L 534 738 L 727 968 L 736 976 L 745 981 L 767 986 L 1031 986 L 1040 983 L 1050 974 L 1054 965 L 1054 952 L 1050 942 L 843 699 L 839 692 L 837 683 L 839 671 L 847 660 L 887 639 L 920 615 L 949 587 L 975 555 L 1001 512 L 1017 476 L 1029 438 L 1038 389 L 1040 366 L 1039 306 L 1029 250 L 1017 212 L 997 168 L 978 137 L 954 106 L 922 74 L 878 42 L 838 22 L 796 8 L 749 0 L 294 0 L 261 4 L 235 10 L 192 26 L 170 37 L 136 59 L 115 76 Z"
    fill="#1877F2"
    fill-rule="evenodd"
  />
</svg>