<svg xmlns="http://www.w3.org/2000/svg" viewBox="0 0 620 280" fill="none">
  <rect width="620" height="280" rx="28" fill="#DDF8FC"/>
  <circle cx="455" cy="132" r="94" fill="#FFFFFF" opacity=".9"/>
  <rect x="117" y="31" width="142" height="222" rx="24" fill="#111827"/>
  <rect x="128" y="47" width="120" height="191" rx="14" fill="#FFFFFF"/>
  <rect x="145" y="69" width="86" height="10" rx="5" fill="#1877F2"/>
  <rect x="145" y="91" width="66" height="8" rx="4" fill="#DADDE1"/>
  <rect x="145" y="108" width="76" height="8" rx="4" fill="#DADDE1"/>
  <rect x="145" y="137" width="86" height="49" rx="9" fill="#F0F2F5"/>
  <rect x="158" y="150" width="36" height="8" rx="4" fill="#1877F2"/>
  <rect x="158" y="165" width="56" height="7" rx="3.5" fill="#BCC0C4"/>
  <circle cx="188" cy="220" r="7" fill="#DADDE1"/>
  <g transform="rotate(-10 410 125)">
    <rect x="330" y="75" width="190" height="116" rx="16" fill="#1877F2"/>
    <rect x="349" y="96" width="56" height="10" rx="5" fill="#FFFFFF" opacity=".9"/>
    <rect x="349" y="116" width="91" height="8" rx="4" fill="#FFFFFF" opacity=".65"/>
    <rect x="349" y="145" width="49" height="25" rx="5" fill="#FFFFFF" opacity=".9"/>
  </g>
  <g transform="rotate(7 455 195)">
    <rect x="365" y="161" width="170" height="91" rx="14" fill="#FFFFFF" stroke="#DADDE1" stroke-width="3"/>
    <rect x="385" y="181" width="54" height="9" rx="4.5" fill="#111827"/>
    <rect x="385" y="199" width="91" height="7" rx="3.5" fill="#BCC0C4"/>
    <rect x="385" y="221" width="45" height="17" rx="4" fill="#1877F2"/>
  </g>
  <circle cx="270" cy="190" r="29" fill="#FFFFFF" stroke="#1877F2" stroke-width="5"/>
  <path d="M258 190h24M270 178v24" stroke="#1877F2" stroke-width="5" stroke-linecap="round"/>
</svg>